# xmcd CD database file generated by OrangeCD 5.2
#
# Track frame offsets:
#	150
#	16917
#	35127
#	52820
#	73825
#	94987
#	120842
#	146585
#	167600
#	188667
#	207322
#	228812
#	248090
#	249980
#	276417
#
# Disc length: 3740 seconds
#
# Revision: 14
# Processed by: cddbd v1.5.1PL2 Copyright (c) Steve Scherf et al.
# Submitted via: OrangeCD 5.2
#
DISCID=ca0e9a0f
DTITLE=Popa Chubby - Booty And The Beast
DYEAR=1995
DGENRE=Blues
TTITLE0=Palace Of The King
TTITLE1=Lookin' Back
TTITLE2=Healing In Her Hands
TTITLE3=Sweet Goddess Of Love And Beer
TTITLE4=Stoop Down Baby
TTITLE5=Trouble
TTITLE6=Same Old Blues
TTITLE7=Anything You Want Me To Do
TTITLE8=Low Down And Dirty
TTITLE9=Waitin' For The Light
TTITLE10=Angel On My Shoulder
TTITLE11=You Rub Me The Wrong Way
TTITLE12=Secret Chubby
TTITLE13=Sweat
TTITLE14=Chubby's Goodnight
EXTD=(C) 1995 Sony Music Entertainment\nOKeh/550 Music\nBK 66949
EXTT0=
EXTT1=
EXTT2=
EXTT3=
EXTT4=
EXTT5=
EXTT6=
EXTT7=
EXTT8=
EXTT9=
EXTT10=
EXTT11=
EXTT12=
EXTT13=
EXTT14=
PLAYORDER=
